<svg width="18" height="18" viewBox="0 0 51 53" fill="none" xmlns="http://www.w3.org/2000/svg">
<path d="M49.8978 47.1418L38.5299 35.3886C41.2668 31.6216 42.7442 27.0364 42.7392 22.3251C42.7392 10.2908 33.2694 0.5 21.6298 0.5C9.99005 0.5 0.520264 10.2908 0.520264 22.3251C0.520264 34.3593 9.99005 44.1501 21.6298 44.1501C26.1867 44.1553 30.6215 42.6277 34.265 39.7981L45.6329 51.5513C46.2083 52.0831 46.9588 52.367 47.7304 52.3447C48.5019 52.3224 49.2359 51.9955 49.7816 51.4313C50.3274 50.867 50.6436 50.1081 50.6651 49.3104C50.6867 48.5127 50.4122 47.7368 49.8978 47.1418ZM6.55155 22.3251C6.55155 19.2418 7.43587 16.2277 9.09268 13.6641C10.7495 11.1004 13.1044 9.10232 15.8596 7.9224C18.6148 6.74248 21.6465 6.43376 24.5714 7.03528C27.4962 7.63679 30.1829 9.12153 32.2916 11.3017C34.4004 13.4819 35.8364 16.2597 36.4182 19.2837C37 22.3078 36.7014 25.4423 35.5602 28.2908C34.419 31.1394 32.4864 33.5741 30.0068 35.2871C27.5272 37.0001 24.6119 37.9144 21.6298 37.9144C17.6322 37.9094 13.7998 36.2654 10.9731 33.3429C8.14647 30.4204 6.55634 26.4581 6.55155 22.3251Z" fill="white"/>
</svg>
