<svg width="48" height="92" viewBox="0 0 48 92" fill="none" xmlns="http://www.w3.org/2000/svg">
<ellipse opacity="0.2" cx="24" cy="79" rx="4" ry="2" fill="#131313"/>
<path d="M23.9993 2C15.1772 2 8 8.85046 8 17.27C8 25.3745 22.5164 44.3094 23.1345 45.1112L23.7114 45.8605C23.7789 45.9485 23.8863 46 23.9993 46C24.1141 46 24.2208 45.9485 24.289 45.8605L24.8655 45.1112C25.4839 44.3094 40 25.3745 40 17.27C40 8.85046 32.8216 2 23.9993 2ZM23.9993 11.8003C27.1603 11.8003 29.7307 14.2534 29.7307 17.27C29.7307 20.2849 27.1602 22.7396 23.9993 22.7396C20.8402 22.7396 18.2679 20.2849 18.2679 17.27C18.2679 14.2534 20.8401 11.8003 23.9993 11.8003Z" fill="white"/>
</svg>
